<?xml version="1.0" encoding="UTF-8"?>
<svg viewBox="0 0 750 706.35" xmlns="http://www.w3.org/2000/svg">
 <defs>
  <clipPath id="a">
   <path d="m86.667 2377.8h2500v-2354.5h-2500v2354.5z"/>
  </clipPath>
 </defs>
 <g transform="rotate(-.24679 401.35 1736.8) matrix(1.25 0 0 -1.25 0 706.35)">
  <g transform="translate(0 -.8) scale(.24)">
   <g clip-path="url(#a)">
    <path d="m1224.2 1724.5h-50.41c39.79 49.07 43.78 191.01 43.78 191.01l-117.4-78.93c-55.05 0 151.69 204.29 163.83 151.89 40.44-174.65-39.8-263.97-39.8-263.97m-455-122.05l-46.43 61.03 136.63 41.12-90.203-102.15zm-245.41-164.49l-37.14 75.62 74.281 19.9-37.141-95.52zm1528.2-172c-443.95-3.5399-686.26 91.97-700.4 120.27 215.78-104.36 688.02-26.53 877.27-88.43 0 0-70.75 155.64-183.95 219.31-113.19 63.67-642.92-8.84-642.92-8.84 413.88 135.31 811.84 37.15 811.84 37.15-114.08 342.24-455.45 267.07-455.45 267.07 44.23 45.99 244.08 19.45 244.08 19.45l86.67 47.76c-169.79 159.18-435.1 128.67-435.1 128.67 15.93 21.23 159.18 27.86 159.18 27.86l86.23 50.41c-153.88 67.64-363.47 13.26-363.47 13.26 1.3301 21.22 107.45 37.15 107.45 37.15l43.77 33.16c-115.4 34.48-277.24-9.29-277.24-9.29-5.3 15.92 45.1 68.98 45.1 68.98-144.59 2.6499-237.89-96.83-237.89-96.83-4.42 15.91 0 57.92 0 57.92-203.4-95.51-237-321.91-237-321.91l-109.66 2.66-137.08-118.51-8.84-29.18c-134.42-62.79-198.98-93.74-253.81-126.47-37.145-45.98-23.875-100.81-23.875-100.81l78.262-151.66 218.87-21.22 9.285-45.11-192.34 2.66 31.836-91.53-31.836-87.55 78.266-5.3099 26.531-83.571 35.816 31.841 47.754-66.329 82.246 94.179-1.332 15.92h43.782l168.46 172.45-25.203 104.79 62.348 22.56 33.162 111.42-65.002 148.57 71.632 41.12-17.25-64.99 61.03-137.97-49.53-134.42-45.097-15.92 22.107-90.2-207.82-225.51-30.07 4.419c-353.74-403.26-136.19-716.32-136.19-716.32 35.375 189.25 173.34 300.68 173.34 300.68-86.668 120.28-44.219 274.15-44.219 274.15 26.531-180.41 134.42-297.14 134.42-297.14l102.58 122.04c-106.12 136.19-90.199 263.54-90.199 263.54 123.81-311.29 270.61-346.67 270.61-346.67l49.52 125.58c-203.4 175.1-194.55 309.52-194.55 309.52 145.03-318.36 454.55-351.97 454.55-351.97l17.69 160.95c-311.3 157.41-351.97 309.53-351.97 309.53 288.3-300.68 587.2-323.68 587.2-323.68-22.99 33.609-21.23 205.17-21.23 205.17-443.93 90.21-532.36 282.99-532.36 282.99 383.8-320.14 734.01-189.25 956.86-282.99-10.61 70.76-176.87 205.17-176.87 205.17" fill="#1ebcbc" _idv_element_hash="45003184"/>
   </g>
  </g>
 </g>
</svg>
